<?xml version="1.0" encoding="UTF-8"?> <svg xmlns="http://www.w3.org/2000/svg" width="103" height="40" viewBox="0 0 103 40" fill="none"><path d="M1.81619 24.2149V0H6.55539L15.3765 14.356L12.2632 14.3214L21.1881 0H25.7198V24.2149H20.6346V15.9127C20.6346 13.8371 20.6808 11.9691 20.773 10.3086C20.8883 8.64818 21.0728 6.99926 21.3265 5.36187L21.9492 6.98773L14.8576 17.9882H12.5745L5.62139 7.05692L6.20946 5.36187C6.46314 6.90701 6.63611 8.49828 6.72835 10.1357C6.84366 11.75 6.90132 13.6757 6.90132 15.9127V24.2149H1.81619Z" fill="black"></path><path d="M29.1461 24.2149L38.6245 0H43.2599L52.7037 24.2149H47.3764L42.4989 11.1735C42.3605 10.8045 42.1875 10.3317 41.98 9.75515C41.7955 9.17861 41.5994 8.56747 41.3919 7.92173C41.1843 7.276 40.9883 6.66487 40.8038 6.08832C40.6193 5.48871 40.4809 4.99288 40.3887 4.60083L41.3227 4.56624C41.1843 5.09666 41.0229 5.65015 40.8384 6.22669C40.677 6.78017 40.504 7.35672 40.3195 7.95633C40.135 8.53287 39.939 9.09789 39.7314 9.65137C39.5239 10.2049 39.3279 10.7468 39.1434 11.2772L34.2658 24.2149H29.1461ZM33.5393 19.1298L35.2344 14.9441H46.3386L48.0683 19.1298H33.5393Z" fill="black"></path><path d="M56.1038 24.2149V0H66.8275C68.3266 0 69.6872 0.345928 70.9095 1.03778C72.1318 1.70658 73.0888 2.61752 73.7807 3.77061C74.4956 4.9237 74.853 6.23822 74.853 7.71418C74.853 9.16707 74.4956 10.4931 73.7807 11.6923C73.0888 12.8685 72.1318 13.8025 70.9095 14.4944C69.6872 15.1862 68.3266 15.5321 66.8275 15.5321H61.1197V24.2149H56.1038ZM69.8371 24.2149L63.6796 13.2836L69.0069 12.4188L75.8562 24.2495L69.8371 24.2149ZM61.1197 11.3118H66.5854C67.2081 11.3118 67.75 11.1735 68.2112 10.8967C68.6955 10.5969 69.0645 10.1933 69.3182 9.68596C69.5719 9.15554 69.6987 8.56747 69.6987 7.92173C69.6987 7.22988 69.5488 6.63027 69.249 6.12291C68.9492 5.61555 68.511 5.2235 67.9345 4.94676C67.358 4.64696 66.6892 4.49705 65.9281 4.49705H61.1197V11.3118Z" fill="black"></path><path d="M84.2344 17.0542L83.1275 12.3496L95.3733 0H101.669L84.2344 17.0542ZM80.3255 24.2149V0H85.5144V24.2149H80.3255ZM96.0305 24.2149L86.9673 12.1766L90.5303 9.09789L102.188 24.2149H96.0305Z" fill="black"></path><path d="M5.51322 32.048C5.4743 32.1129 5.43106 32.1626 5.38349 32.1972C5.34025 32.2274 5.2862 32.2426 5.22134 32.2426C5.14783 32.2426 5.06135 32.2058 4.96189 32.1323C4.86244 32.0588 4.73704 31.9788 4.5857 31.8923C4.43868 31.8015 4.25923 31.7194 4.04735 31.6459C3.83979 31.5723 3.58683 31.5356 3.28847 31.5356C3.00741 31.5356 2.75877 31.5745 2.54257 31.6523C2.33068 31.7259 2.15124 31.8275 2.00422 31.9572C1.86152 32.0869 1.75342 32.2404 1.67991 32.4177C1.6064 32.5907 1.56964 32.7788 1.56964 32.982C1.56964 33.2414 1.63234 33.4576 1.75774 33.6306C1.88747 33.7993 2.05611 33.9441 2.26366 34.0652C2.47554 34.1863 2.71337 34.2922 2.97714 34.383C3.24523 34.4695 3.51765 34.5603 3.79439 34.6554C4.07546 34.7506 4.34787 34.8587 4.61164 34.9797C4.87974 35.0965 5.11756 35.2457 5.32512 35.4273C5.537 35.6089 5.70564 35.8316 5.83104 36.0953C5.96076 36.3591 6.02562 36.6834 6.02562 37.0683C6.02562 37.4747 5.95644 37.8574 5.81806 38.2163C5.67969 38.5709 5.47646 38.8801 5.20837 39.1438C4.9446 39.4076 4.61813 39.6152 4.22896 39.7665C3.84412 39.9178 3.40522 39.9935 2.91228 39.9935C2.3069 39.9935 1.75774 39.8854 1.2648 39.6692C0.77185 39.4487 0.350251 39.1525 0 38.7806L0.363224 38.1839C0.397816 38.1363 0.438895 38.0974 0.48646 38.0671C0.538349 38.0325 0.594563 38.0152 0.6551 38.0152C0.711313 38.0152 0.774012 38.039 0.843198 38.0866C0.916707 38.1298 0.998865 38.186 1.08967 38.2552C1.18048 38.3244 1.28425 38.4001 1.40101 38.4822C1.51776 38.5644 1.64964 38.6401 1.79666 38.7093C1.948 38.7784 2.1188 38.8368 2.30906 38.8844C2.49932 38.9276 2.71337 38.9492 2.95119 38.9492C3.24955 38.9492 3.51549 38.9082 3.74899 38.826C3.98249 38.7439 4.17923 38.6293 4.33922 38.4822C4.50354 38.3309 4.62894 38.1515 4.71542 37.9439C4.8019 37.7363 4.84514 37.505 4.84514 37.2499C4.84514 36.9688 4.78028 36.7396 4.65056 36.5624C4.52516 36.3807 4.35868 36.2294 4.15113 36.1083C3.94357 35.9872 3.70575 35.8856 3.43765 35.8035C3.16956 35.717 2.89714 35.6305 2.6204 35.544C2.34366 35.4532 2.07124 35.3494 1.80315 35.2327C1.53505 35.1159 1.29723 34.9646 1.08967 34.7787C0.882114 34.5927 0.713475 34.3614 0.583752 34.0846C0.458354 33.8036 0.395654 33.4576 0.395654 33.0469C0.395654 32.7182 0.458354 32.4004 0.583752 32.0934C0.713475 31.7864 0.899411 31.514 1.14156 31.2761C1.38803 31.0383 1.68856 30.8481 2.04313 30.7054C2.40203 30.5627 2.81282 30.4913 3.2755 30.4913C3.79439 30.4913 4.26572 30.5735 4.68948 30.7378C5.11756 30.9021 5.49376 31.1399 5.81806 31.4513L5.51322 32.048Z" fill="black"></path><path d="M21.9249 31.6523H18.9153V39.8897H17.6635V31.6523H14.6475V30.5951H21.9249V31.6523Z" fill="black"></path><path d="M34.7284 38.8909C35.1132 38.8909 35.457 38.826 35.7597 38.6963C36.0623 38.5666 36.3175 38.385 36.525 38.1515C36.7369 37.9179 36.8969 37.639 37.005 37.3147C37.1174 36.9904 37.1736 36.6337 37.1736 36.2445V30.5951H38.4255V36.2445C38.4255 36.7807 38.339 37.278 38.166 37.7363C37.9974 38.1947 37.7531 38.5925 37.4331 38.9298C37.1174 39.2627 36.7304 39.5244 36.2721 39.7146C35.8137 39.9049 35.2991 40 34.7284 40C34.1576 40 33.643 39.9049 33.1847 39.7146C32.7263 39.5244 32.3371 39.2627 32.0172 38.9298C31.6972 38.5925 31.4507 38.1947 31.2777 37.7363C31.1091 37.278 31.0248 36.7807 31.0248 36.2445V30.5951H32.2766V36.238C32.2766 36.6272 32.3307 36.9839 32.4388 37.3083C32.5512 37.6326 32.7112 37.9115 32.9187 38.145C33.1306 38.3785 33.3879 38.5622 33.6906 38.6963C33.9976 38.826 34.3435 38.8909 34.7284 38.8909Z" fill="black"></path><path d="M56.5739 35.2457C56.5739 35.9418 56.4636 36.5753 56.2431 37.1461C56.0226 37.7169 55.7112 38.2055 55.3091 38.612C54.907 39.0184 54.4227 39.3341 53.8562 39.5589C53.2941 39.7795 52.6714 39.8897 51.9882 39.8897H48.5181V30.5951H51.9882C52.6714 30.5951 53.2941 30.7075 53.8562 30.9324C54.4227 31.1529 54.907 31.4686 55.3091 31.8794C55.7112 32.2858 56.0226 32.7744 56.2431 33.3452C56.4636 33.916 56.5739 34.5495 56.5739 35.2457ZM55.2832 35.2457C55.2832 34.6749 55.2053 34.1646 55.0497 33.7149C54.894 33.2652 54.6735 32.8847 54.3881 32.5734C54.1027 32.262 53.7568 32.0242 53.3503 31.8599C52.9438 31.6956 52.4898 31.6134 51.9882 31.6134H49.7764V38.8714H51.9882C52.4898 38.8714 52.9438 38.7893 53.3503 38.6249C53.7568 38.4606 54.1027 38.225 54.3881 37.9179C54.6735 37.6066 54.894 37.2261 55.0497 36.7764C55.2053 36.3267 55.2832 35.8164 55.2832 35.2457Z" fill="black"></path><path d="M67.4824 39.8897H66.2241V30.5951H67.4824V39.8897Z" fill="black"></path><path d="M86.2849 35.2457C86.2849 35.9418 86.1747 36.5818 85.9541 37.1656C85.7336 37.745 85.4223 38.2444 85.0201 38.6639C84.618 39.0833 84.1337 39.4098 83.5672 39.6433C83.0051 39.8724 82.3824 39.987 81.6992 39.987C81.016 39.987 80.3933 39.8724 79.8312 39.6433C79.2691 39.4098 78.7869 39.0833 78.3848 38.6639C77.9827 38.2444 77.6713 37.745 77.4508 37.1656C77.2303 36.5818 77.12 35.9418 77.12 35.2457C77.12 34.5495 77.2303 33.9117 77.4508 33.3323C77.6713 32.7485 77.9827 32.2469 78.3848 31.8275C78.7869 31.4037 79.2691 31.0751 79.8312 30.8416C80.3933 30.6081 81.016 30.4913 81.6992 30.4913C82.3824 30.4913 83.0051 30.6081 83.5672 30.8416C84.1337 31.0751 84.618 31.4037 85.0201 31.8275C85.4223 32.2469 85.7336 32.7485 85.9541 33.3323C86.1747 33.9117 86.2849 34.5495 86.2849 35.2457ZM84.9942 35.2457C84.9942 34.6749 84.9164 34.1625 84.7607 33.7084C84.605 33.2544 84.3845 32.8717 84.0991 32.5604C83.8137 32.2447 83.4678 32.0026 83.0613 31.834C82.6548 31.6653 82.2008 31.581 81.6992 31.581C81.202 31.581 80.7501 31.6653 80.3436 31.834C79.9372 32.0026 79.5891 32.2447 79.2994 32.5604C79.014 32.8717 78.7934 33.2544 78.6378 33.7084C78.4821 34.1625 78.4043 34.6749 78.4043 35.2457C78.4043 35.8164 78.4821 36.3288 78.6378 36.7829C78.7934 37.2326 79.014 37.6153 79.2994 37.9309C79.5891 38.2423 79.9372 38.4822 80.3436 38.6509C80.7501 38.8152 81.202 38.8974 81.6992 38.8974C82.2008 38.8974 82.6548 38.8152 83.0613 38.6509C83.4678 38.4822 83.8137 38.2423 84.0991 37.9309C84.3845 37.6153 84.605 37.2326 84.7607 36.7829C84.9164 36.3288 84.9942 35.8164 84.9942 35.2457Z" fill="black"></path><path d="M100.677 32.048C100.638 32.1129 100.595 32.1626 100.547 32.1972C100.504 32.2274 100.45 32.2426 100.385 32.2426C100.312 32.2426 100.225 32.2058 100.126 32.1323C100.026 32.0588 99.9008 31.9788 99.7495 31.8923C99.6024 31.8015 99.423 31.7194 99.2111 31.6459C99.0036 31.5723 98.7506 31.5356 98.4522 31.5356C98.1712 31.5356 97.9225 31.5745 97.7063 31.6523C97.4945 31.7259 97.315 31.8275 97.168 31.9572C97.0253 32.0869 96.9172 32.2404 96.8437 32.4177C96.7702 32.5907 96.7334 32.7788 96.7334 32.982C96.7334 33.2414 96.7961 33.4576 96.9215 33.6306C97.0512 33.7993 97.2199 33.9441 97.4274 34.0652C97.6393 34.1863 97.8771 34.2922 98.1409 34.383C98.409 34.4695 98.6814 34.5603 98.9582 34.6554C99.2392 34.7506 99.5116 34.8587 99.7754 34.9797C100.044 35.0965 100.281 35.2457 100.489 35.4273C100.701 35.6089 100.869 35.8316 100.995 36.0953C101.125 36.3591 101.189 36.6834 101.189 37.0683C101.189 37.4747 101.12 37.8574 100.982 38.2163C100.843 38.5709 100.64 38.8801 100.372 39.1438C100.108 39.4076 99.7819 39.6152 99.3927 39.7665C99.0079 39.9178 98.569 39.9935 98.076 39.9935C97.4707 39.9935 96.9215 39.8854 96.4286 39.6692C95.9356 39.4487 95.514 39.1525 95.1638 38.7806L95.527 38.1839C95.5616 38.1363 95.6027 38.0974 95.6502 38.0671C95.7021 38.0325 95.7583 38.0152 95.8189 38.0152C95.8751 38.0152 95.9378 38.039 96.007 38.0866C96.0805 38.1298 96.1626 38.186 96.2534 38.2552C96.3442 38.3244 96.448 38.4001 96.5648 38.4822C96.6815 38.5644 96.8134 38.6401 96.9604 38.7093C97.1118 38.7784 97.2826 38.8368 97.4728 38.8844C97.6631 38.9276 97.8771 38.9492 98.115 38.9492C98.4133 38.9492 98.6793 38.9082 98.9128 38.826C99.1463 38.7439 99.343 38.6293 99.503 38.4822C99.6673 38.3309 99.7927 38.1515 99.8792 37.9439C99.9657 37.7363 100.009 37.505 100.009 37.2499C100.009 36.9688 99.944 36.7396 99.8143 36.5624C99.6889 36.3807 99.5225 36.2294 99.3149 36.1083C99.1073 35.9872 98.8695 35.8856 98.6014 35.8035C98.3333 35.717 98.0609 35.6305 97.7842 35.544C97.5074 35.4532 97.235 35.3494 96.9669 35.2327C96.6988 35.1159 96.461 34.9646 96.2534 34.7787C96.0459 34.5927 95.8772 34.3614 95.7475 34.0846C95.6221 33.8036 95.5594 33.4576 95.5594 33.0469C95.5594 32.7182 95.6221 32.4004 95.7475 32.0934C95.8772 31.7864 96.0632 31.514 96.3053 31.2761C96.5518 31.0383 96.8523 30.8481 97.2069 30.7054C97.5658 30.5627 97.9766 30.4913 98.4393 30.4913C98.9582 30.4913 99.4295 30.5735 99.8532 30.7378C100.281 30.9021 100.658 31.1399 100.982 31.4513L100.677 32.048Z" fill="black"></path></svg> 